<svg width="79" height="58" viewBox="0 0 79 58" fill="none" xmlns="http://www.w3.org/2000/svg">
<path d="M39.3106 0L38.1967 1.30772C31.9734 8.40933 28.9465 19.7731 29.334 30.9977L29.3824 32.0632L27.9779 30.0774C22.2753 21.5107 13.6304 16.9034 2.74574 14.9661L0.71167 14.5786L0.905391 16.6613C1.49261 22.3765 2.73363 27.0322 4.68295 31.5305L5.0704 32.4991H6.08743L26.7187 32.4507H29.3824V32.4991H73.9383L74.3257 31.5789C76.3779 27.1169 77.7037 22.2978 78.3938 16.7097L78.636 14.6755L76.6019 15.0145C65.5053 16.6976 56.691 21.5228 50.6433 30.029L49.3357 31.8695L49.3841 31.0461C49.9289 19.5915 46.8112 8.19744 40.4729 1.25928L39.3106 0ZM39.359 5.08556C43.8388 10.9884 46.3996 19.9729 46.2361 29.3994H32.4819C32.4396 20.1667 34.9519 11.1156 39.359 5.08556ZM4.39237 18.5986C12.4076 20.3725 18.7156 23.7387 23.377 29.3509L7.20133 29.3994C5.85739 26.1059 4.96748 22.5823 4.39237 18.5986ZM74.8584 18.5986C74.2107 22.552 73.2723 26.1361 71.8558 29.3994H55.341C60.2688 23.7205 66.704 20.2272 74.8584 18.5986ZM6.32958 36.4707C6.9168 37.7482 7.87935 39.3465 8.70267 40.4907L70.1607 40.4423C71.0567 39.1891 71.9163 37.8995 72.5338 36.4707H6.32958ZM11.5601 44.5592C12.8313 46.2423 13.9452 46.9264 15.5313 48.1917H63.0899C64.4278 47.1504 65.8201 45.9214 67.0612 44.5592H11.5601ZM20.5681 51.5337C24.6302 54.0462 29.3945 55.6929 34.8066 56.813L34.177 51.5337H20.5681ZM35.4846 51.5337C36.5319 53.7132 37.8819 55.5416 39.4075 57.2973C40.9088 55.5113 41.9319 53.6829 42.9913 51.5337H35.4846ZM44.5411 51.5337L43.7178 56.5224C49.1541 55.5234 53.9426 53.9433 58.1016 51.5337H44.5411Z" fill="#C5CAD9"/>
</svg>
