<svg width="132" height="29" viewBox="0 0 132 29" fill="none" xmlns="http://www.w3.org/2000/svg">
<path d="M104.024 23.0549L119.893 23.0597C120.69 23.0597 121.384 22.4932 121.543 21.7128L123.708 11.0665C123.781 10.711 123.691 10.3467 123.462 10.0665C123.233 9.78608 122.894 9.62522 122.532 9.62522H103.398L103.249 8.89598C102.973 7.5394 101.768 6.55383 100.382 6.55383H98.2022C97.9364 6.55383 97.7205 6.76975 97.7205 7.03555C97.7205 7.30136 97.9364 7.51727 98.2022 7.51727H100.382C101.311 7.51727 102.119 8.17814 102.305 9.08757L104.952 22.0912H104.024C102.728 22.0912 101.672 23.1463 101.672 24.4431C101.672 25.7399 102.728 26.7949 104.024 26.7949H105.482C105.705 27.8112 106.609 28.5753 107.691 28.5753C108.773 28.5753 109.678 27.8112 109.9 26.7949H116.739C116.961 27.8112 117.866 28.5753 118.948 28.5753C120.03 28.5753 120.935 27.8112 121.157 26.7949H122.69C122.956 26.7949 123.172 26.579 123.172 26.3132C123.172 26.0474 122.956 25.8315 122.69 25.8315H121.158C120.938 24.8132 120.032 24.0472 118.948 24.0472C117.864 24.0472 116.959 24.8132 116.738 25.8315H109.901C109.681 24.8132 108.774 24.0472 107.691 24.0472C106.608 24.0472 105.703 24.8132 105.481 25.8315L104.024 25.8313C103.258 25.8313 102.636 25.2089 102.636 24.4429C102.636 23.6771 103.259 23.0547 104.024 23.0547L104.024 23.0549ZM103.594 10.5891H122.533C122.706 10.5969 122.791 10.7068 122.764 10.8743L120.599 21.5211C120.531 21.8555 120.234 22.0973 119.894 22.0973L105.936 22.0925L103.594 10.5891ZM118.949 25.0121C119.665 25.0121 120.249 25.5949 120.249 26.3127C120.249 27.0306 119.666 27.6134 118.949 27.6134C118.231 27.6134 117.648 27.0306 117.648 26.3127C117.648 25.5949 118.232 25.0121 118.949 25.0121ZM107.692 25.0121C108.41 25.0121 108.992 25.5949 108.992 26.3127C108.992 27.0306 108.41 27.6134 107.692 27.6134C106.975 27.6134 106.391 27.0306 106.391 26.3127C106.391 25.5949 106.974 25.0121 107.692 25.0121Z" fill="#1B2858"/>
<path d="M109.431 16.8246H117.226C117.492 16.8246 117.707 16.6087 117.707 16.3429C117.707 16.0771 117.492 15.8611 117.226 15.8611H109.431C109.165 15.8611 108.949 16.0771 108.949 16.3429C108.949 16.6087 109.164 16.8246 109.431 16.8246Z" fill="#1B2858"/>
<path d="M21.8496 27.6029L15.8073 21.5684C17.2391 19.9669 18.0982 17.8792 18.0982 15.5912C18.0982 10.6149 14.0319 6.55383 9.04912 6.55383C4.06638 6.55383 0 10.6149 0 15.5912C0 20.5675 4.06638 24.6286 9.04912 24.6286C11.3401 24.6286 13.4305 23.7705 15.0055 22.3693L21.0764 28.4038C21.1909 28.5181 21.3341 28.5753 21.4773 28.5753C21.6206 28.5753 21.7638 28.5181 21.8497 28.4038C22.0788 28.175 22.0788 27.8316 21.8497 27.6028L21.8496 27.6029ZM9.04907 23.4848C4.69628 23.4848 1.14541 19.9384 1.14541 15.5914C1.14541 11.2442 4.69638 7.69796 9.04907 7.69796C13.4019 7.69796 16.9527 11.2443 16.9527 15.5914C16.9529 19.9383 13.4019 23.4848 9.04907 23.4848Z" fill="#1B2858"/>
<path d="M60.6179 16.1422C61.8895 16.1424 63.109 15.6373 64.0081 14.7384C64.9075 13.8393 65.4125 12.6199 65.4128 11.3485C65.4128 10.0769 64.9077 8.85748 64.0085 7.95809C63.1097 7.05898 61.8903 6.55383 60.6187 6.55383C59.347 6.55383 58.1276 7.05868 57.2285 7.95782C56.3294 8.85694 55.8242 10.0764 55.8242 11.348C55.8255 12.6189 56.3312 13.8375 57.2298 14.7363C58.1283 15.6349 59.347 16.1406 60.6178 16.1422H60.6179ZM60.6179 7.74224C61.5746 7.74198 62.4919 8.12194 63.1684 8.79836C63.8447 9.47448 64.2247 10.3919 64.2249 11.3485C64.2249 12.3049 63.845 13.2223 63.1686 13.8987C62.4922 14.5751 61.5748 14.955 60.6184 14.955C59.6618 14.9548 58.7444 14.5748 58.0683 13.8984C57.3919 13.2221 57.0119 12.3047 57.0122 11.348C57.0135 10.3921 57.3937 9.47578 58.0696 8.79965C58.7457 8.12378 59.662 7.74353 60.6179 7.74224V7.74224Z" fill="#1B2858"/>
<path d="M60.6181 17.0545C58.0481 17.0574 55.5843 18.0796 53.7672 19.8969C51.9499 21.714 50.9277 24.178 50.9248 26.7478V27.3418H70.3121V26.7478C70.3092 24.1778 69.2868 21.7137 67.4695 19.8969C65.6522 18.0796 63.1881 17.0574 60.6179 17.0545H60.6181ZM52.1334 26.1542C52.3346 23.2625 53.9945 20.6725 56.5375 19.2816C59.0806 17.8909 62.1568 17.8909 64.6998 19.2816C67.2429 20.6725 68.9027 23.2625 69.1037 26.1542H52.1334Z" fill="#1B2858"/>
<circle cx="124.5" cy="7.5" r="7.5" fill="#F04726"/>
<path d="M124.66 11V9.27H121.44V8.68L124.45 4.4H125.46V8.58H126.63V9.27H125.46V11H124.66ZM122.29 8.58H124.66V6.11C124.66 5.93667 124.663 5.76 124.67 5.58C124.683 5.4 124.693 5.22333 124.7 5.05H124.68C124.6 5.21667 124.497 5.40333 124.37 5.61C124.243 5.81667 124.127 5.99667 124.02 6.15L122.29 8.58Z" fill="white"/>
</svg>
