<svg width="413" height="83" viewBox="0 0 413 83" fill="none" xmlns="http://www.w3.org/2000/svg">
<circle cx="41.5" cy="41.5" r="41.5" fill="white"/>
<path d="M37.43 54V33.36H39.59V54H37.43ZM33.08 35.31V33.36H39.29V35.31H33.08ZM47.5667 54V33.36H49.7267V54H47.5667ZM43.2167 35.31V33.36H49.4267V35.31H43.2167Z" fill="#34394C"/>
<circle cx="151.5" cy="41.5" r="41.5" fill="white"/>
<path d="M138.14 52.65L145.79 44.67C146.67 43.73 147.35 42.94 147.83 42.3C148.33 41.66 148.67 41.08 148.85 40.56C149.05 40.02 149.15 39.46 149.15 38.88C149.15 37.7 148.78 36.78 148.04 36.12C147.3 35.44 146.32 35.1 145.1 35.1C143.98 35.1 143 35.37 142.16 35.91C141.32 36.43 140.57 37.22 139.91 38.28L138.38 36.93C139.18 35.67 140.14 34.71 141.26 34.05C142.38 33.39 143.68 33.06 145.16 33.06C146.4 33.06 147.48 33.3 148.4 33.78C149.34 34.26 150.06 34.94 150.56 35.82C151.08 36.7 151.34 37.73 151.34 38.91C151.34 39.73 151.23 40.48 151.01 41.16C150.79 41.82 150.4 42.52 149.84 43.26C149.3 43.98 148.53 44.86 147.53 45.9L141.05 52.56L138.14 52.65ZM138.14 54V52.65L139.94 52.02H151.85V54H138.14ZM158.631 54V33.36H160.791V54H158.631ZM154.281 35.31V33.36H160.491V35.31H154.281Z" fill="#34394C"/>
<path d="M98.13 54.38C97.4967 54.38 96.9773 54.1647 96.572 53.734C96.192 53.3033 96.002 52.7967 96.002 52.214C96.002 51.5807 96.192 51.0613 96.572 50.656C96.9773 50.2253 97.4967 50.01 98.13 50.01C98.738 50.01 99.2447 50.2253 99.65 50.656C100.081 51.0613 100.296 51.5807 100.296 52.214C100.296 52.7967 100.081 53.3033 99.65 53.734C99.2447 54.1647 98.738 54.38 98.13 54.38ZM98.13 42.41C97.4967 42.41 96.9773 42.1947 96.572 41.764C96.192 41.3333 96.002 40.8267 96.002 40.244C96.002 39.6107 96.192 39.0913 96.572 38.686C96.9773 38.2807 97.4967 38.078 98.13 38.078C98.738 38.078 99.2447 38.2807 99.65 38.686C100.081 39.0913 100.296 39.6107 100.296 40.244C100.296 40.8267 100.081 41.3333 99.65 41.764C99.2447 42.1947 98.738 42.41 98.13 42.41Z" fill="#34394C"/>
<path d="M205.13 54.38C204.497 54.38 203.977 54.1647 203.572 53.734C203.192 53.3033 203.002 52.7967 203.002 52.214C203.002 51.5807 203.192 51.0613 203.572 50.656C203.977 50.2253 204.497 50.01 205.13 50.01C205.738 50.01 206.245 50.2253 206.65 50.656C207.081 51.0613 207.296 51.5807 207.296 52.214C207.296 52.7967 207.081 53.3033 206.65 53.734C206.245 54.1647 205.738 54.38 205.13 54.38ZM205.13 42.41C204.497 42.41 203.977 42.1947 203.572 41.764C203.192 41.3333 203.002 40.8267 203.002 40.244C203.002 39.6107 203.192 39.0913 203.572 38.686C203.977 38.2807 204.497 38.078 205.13 38.078C205.738 38.078 206.245 38.2807 206.65 38.686C207.081 39.0913 207.296 39.6107 207.296 40.244C207.296 40.8267 207.081 41.3333 206.65 41.764C206.245 42.1947 205.738 42.41 205.13 42.41Z" fill="#34394C"/>
<path d="M318.13 54.38C317.497 54.38 316.977 54.1647 316.572 53.734C316.192 53.3033 316.002 52.7967 316.002 52.214C316.002 51.5807 316.192 51.0613 316.572 50.656C316.977 50.2253 317.497 50.01 318.13 50.01C318.738 50.01 319.245 50.2253 319.65 50.656C320.081 51.0613 320.296 51.5807 320.296 52.214C320.296 52.7967 320.081 53.3033 319.65 53.734C319.245 54.1647 318.738 54.38 318.13 54.38ZM318.13 42.41C317.497 42.41 316.977 42.1947 316.572 41.764C316.192 41.3333 316.002 40.8267 316.002 40.244C316.002 39.6107 316.192 39.0913 316.572 38.686C316.977 38.2807 317.497 38.078 318.13 38.078C318.738 38.078 319.245 38.2807 319.65 38.686C320.081 39.0913 320.296 39.6107 320.296 40.244C320.296 40.8267 320.081 41.3333 319.65 41.764C319.245 42.1947 318.738 42.41 318.13 42.41Z" fill="#34394C"/>
<circle cx="261.5" cy="41.5" r="41.5" fill="white"/>
<path d="M245.14 47.16L252.85 33.36H255.31L247.48 47.16H245.14ZM245.14 48.54V47.16L246.07 46.56H260.77V48.54H245.14ZM255.55 54V40.23H257.71V54H255.55ZM270.18 54.3C268.84 54.3 267.65 54.04 266.61 53.52C265.59 53 264.79 52.29 264.21 51.39C263.63 50.47 263.34 49.43 263.34 48.27C263.34 47.35 263.52 46.51 263.88 45.75C264.26 44.97 264.79 44.31 265.47 43.77C266.15 43.21 266.94 42.83 267.84 42.63L268.08 43.26C267.28 43.04 266.6 42.69 266.04 42.21C265.48 41.73 265.05 41.16 264.75 40.5C264.45 39.82 264.3 39.11 264.3 38.37C264.3 37.31 264.55 36.39 265.05 35.61C265.57 34.81 266.27 34.18 267.15 33.72C268.05 33.26 269.06 33.03 270.18 33.03C271.32 33.03 272.33 33.26 273.21 33.72C274.11 34.18 274.81 34.81 275.31 35.61C275.81 36.39 276.06 37.31 276.06 38.37C276.06 39.11 275.91 39.82 275.61 40.5C275.33 41.16 274.91 41.73 274.35 42.21C273.79 42.69 273.1 43.04 272.28 43.26L272.52 42.63C273.44 42.83 274.23 43.21 274.89 43.77C275.57 44.31 276.09 44.97 276.45 45.75C276.83 46.51 277.02 47.35 277.02 48.27C277.02 49.43 276.73 50.47 276.15 51.39C275.59 52.29 274.79 53 273.75 53.52C272.73 54.04 271.54 54.3 270.18 54.3ZM270.18 52.32C271.1 52.32 271.91 52.14 272.61 51.78C273.33 51.42 273.89 50.92 274.29 50.28C274.69 49.62 274.89 48.88 274.89 48.06C274.89 47.22 274.69 46.49 274.29 45.87C273.89 45.23 273.33 44.73 272.61 44.37C271.91 43.99 271.1 43.8 270.18 43.8C269.28 43.8 268.47 43.99 267.75 44.37C267.05 44.73 266.49 45.23 266.07 45.87C265.67 46.49 265.47 47.22 265.47 48.06C265.47 48.88 265.67 49.62 266.07 50.28C266.49 50.92 267.05 51.42 267.75 51.78C268.45 52.14 269.26 52.32 270.18 52.32ZM270.18 42.09C271.3 42.09 272.21 41.76 272.91 41.1C273.63 40.42 273.99 39.55 273.99 38.49C273.99 37.43 273.63 36.57 272.91 35.91C272.21 35.25 271.3 34.92 270.18 34.92C269.08 34.92 268.17 35.25 267.45 35.91C266.73 36.57 266.37 37.43 266.37 38.49C266.37 39.55 266.73 40.42 267.45 41.1C268.17 41.76 269.08 42.09 270.18 42.09Z" fill="#34394C"/>
<circle cx="371.5" cy="41.5" r="41.5" fill="white"/>
<path d="M355.14 52.65L362.79 44.67C363.67 43.73 364.35 42.94 364.83 42.3C365.33 41.66 365.67 41.08 365.85 40.56C366.05 40.02 366.15 39.46 366.15 38.88C366.15 37.7 365.78 36.78 365.04 36.12C364.3 35.44 363.32 35.1 362.1 35.1C360.98 35.1 360 35.37 359.16 35.91C358.32 36.43 357.57 37.22 356.91 38.28L355.38 36.93C356.18 35.67 357.14 34.71 358.26 34.05C359.38 33.39 360.68 33.06 362.16 33.06C363.4 33.06 364.48 33.3 365.4 33.78C366.34 34.26 367.06 34.94 367.56 35.82C368.08 36.7 368.34 37.73 368.34 38.91C368.34 39.73 368.23 40.48 368.01 41.16C367.79 41.82 367.4 42.52 366.84 43.26C366.3 43.98 365.53 44.86 364.53 45.9L358.05 52.56L355.14 52.65ZM355.14 54V52.65L356.94 52.02H368.85V54H355.14ZM371.341 47.16L379.051 33.36H381.511L373.681 47.16H371.341ZM371.341 48.54V47.16L372.271 46.56H386.971V48.54H371.341ZM381.751 54V40.23H383.911V54H381.751Z" fill="#34394C"/>
</svg>
